<svg id="visual" viewBox="0 0 1920 1080" width="1920" height="1080" xmlns="http://www.w3.org/2000/svg" xmlns:xlink="http://www.w3.org/1999/xlink" version="1.1"><path d="M0 303L53.3 315.3C106.7 327.7 213.3 352.3 320 433.2C426.7 514 533.3 651 640 660.8C746.7 670.7 853.3 553.3 960 501.7C1066.7 450 1173.3 464 1280 505C1386.7 546 1493.3 614 1600 607.3C1706.7 600.7 1813.3 519.3 1866.7 478.7L1920 438L1920 1081L1866.7 1081C1813.3 1081 1706.7 1081 1600 1081C1493.3 1081 1386.7 1081 1280 1081C1173.3 1081 1066.7 1081 960 1081C853.3 1081 746.7 1081 640 1081C533.3 1081 426.7 1081 320 1081C213.3 1081 106.7 1081 53.3 1081L0 1081Z" fill="#151515" stroke-linecap="round" stroke-linejoin="miter"></path></svg>